<svg id="svg" xmlns="http://www.w3.org/2000/svg" xmlns:xlink="http://www.w3.org/1999/xlink" width="400" height="120" viewBox="0, 0, 400,120"><g id="svgg"><path id="path0" d="M143.500 7.000 C 143.500 7.444,143.444 7.500,143.000 7.500 L 142.500 7.500 142.500 10.500 L 142.500 13.500 143.000 13.500 C 143.444 13.500,143.500 13.556,143.500 14.000 L 143.500 14.500 146.500 14.500 L 149.500 14.500 149.500 13.000 L 149.500 11.500 147.500 11.500 L 145.500 11.500 145.500 10.500 L 145.500 9.500 147.500 9.500 L 149.500 9.500 149.500 8.000 L 149.500 6.500 146.500 6.500 L 143.500 6.500 143.500 7.000 M150.500 10.500 L 150.500 14.500 154.000 14.500 L 157.500 14.500 157.500 13.000 L 157.500 11.500 155.500 11.500 L 153.500 11.500 153.500 10.500 L 153.500 9.500 155.500 9.500 L 157.500 9.500 157.500 8.000 L 157.500 6.500 154.000 6.500 L 150.500 6.500 150.500 10.500 " stroke="none" fill="#fcfcfc" fill-rule="evenodd"></path><path id="path1" d="" stroke="none" fill="#100fcfc" fill-rule="evenodd"></path><path id="path2" d="" stroke="none" fill="#100fcfc" fill-rule="evenodd"></path><path id="path3" d="" stroke="none" fill="#100fcfc" fill-rule="evenodd"></path><path id="path4" d="" stroke="none" fill="#100fcfc" fill-rule="evenodd"></path></g></svg>